<svg version="1.1" id="Bottom_Elements" xmlns="http://www.w3.org/2000/svg" x="0" y="0" viewBox="0 0 348.1 20" xml:space="preserve"><style>.st0{fill:#fff}.st1{fill:#fff}</style><path class="st0" d="M42.7 10c.5 0 .9-.1 1.2-.4.3-.3.4-.8.4-1.3s-.1-1-.3-1.3c-.3-.3-.7-.5-1.1-.5h-1.1V10h.9zm-.2-.8V7.3h.4c.3 0 .4.1.5.2s.2.4.2.8-.1.7-.2.8c-.1.1-.2.2-.6.2h-.3zm-8.4 5.6c.2.3.5.5.9.5.3 0 .8-.1 1-.4.2-.3.3-.7.3-1.3.1-1.1.2-1.7.2-2.7 0-1.1 0-2.1-.1-2.8-.1-.7-.2-1.2-.5-1.6-.2-.2-.5-.3-.8-.3-.4 0-.8.2-1 .6-.2.4-.2.9-.3 1.5l-.1 2v2.1l.1.8c0 .8.1 1.2.3 1.6m.5-6.3c0-.6.1-1.1.2-1.2.1-.3.1-.2.3-.3.1 0 .2.1.2.1s.2.4.3 1.1c.1.7.1 1.6.1 2.7 0 1 0 1.5-.2 2.6-.1.5-.2.9-.2.9-.1.1 0 .1-.3.1-.2 0-.2 0-.3-.1-.1-.1-.2-.5-.2-1.1l-.1-.8v-2.1l.2-1.9zm-19.4 2.6h.3v2.5h-.3zm16.3-6v3.3h-1.4v.4h1.7V5.1zm7.2 2.1h1.1v.3h-1.1zm9.4-2.1v.3l1.7 5 1.7-5v-.3h-3.4zM49.8 8l-.9-2.6h1.8L49.8 8zm2.9 2.2h.3v3.5h-.3z"/><path class="st0" d="M55.4 3.7H0v7.5h1.6v-.7h-.3v.4H.7V6.5h.6v2.9h.3V6.5h1.6c-.2.3-.2.7-.2 1.1 0 .4.1.9.2 1.3.1.3.2.6.4.9v.3h.3c.1.1.1.2.2.3.1.1.3.3.4.5v.1H2.7V7.3h-.4v4h2.1v2.2h-.2v.2c0 .5.1.9.3 1.2.2.3.6.5 1 .5s.7-.1.9-.4c.2-.3.3-.6.3-1 0-1.3-.6-2.5-1.6-3.6-.1-.2-.3-.4-.4-.5l-.1-.2v-.1c-.3-.2-.5-.5-.6-.9-.2-.4-.2-.8-.2-1.1 0-.5.2-1 .5-1.3s.7-.5 1.1-.5c.5 0 .9.2 1.2.5.3.3.5.8.5 1.4h.8c0-.4-.1-.8-.2-1.2V5.1H6C5.8 5 5.6 5 5.4 5c-.1 0-.3 0-.5.1H1.6v.3h2.5c-.3.2-.5.5-.7.8H.7V4.4h15.7v.7h-5.9v.3l1.9 4.9 1.9-4.9h.6l-2.2 5.9v1.2h1.7v-2.3h2.1v4.4h-3v-.9h.8v-.3h-1.5v2.7h3.8v-.3h-3V15h3.3V9h.7v7h.8V5.4h.5l2.6 8.4V5.4h.5v1h2.8v-.3h-2v-1h-5.2v3.6h-2.1V9h1.1v.8h-2.1V9l.4-1h2v-.3h-1.8l.8-2.2h.8v1h-.6v.3h.9V4.4h11V5h-3.9v.3h1.8v1.5c0 .1 0 .2-.1.3h-1.6v.3h2.3c.1-.4.2-.7.2-.9.2-.4.8-.8 1.4-.8.8 0 1.4.5 1.6 1.3H29c0-.2-.1-.3-.2-.4-.2-.2-.5-.3-.8-.3-.5 0-.9.3-1 .7-.1.4-.2.9-.3 1.6-.1.7-.1 1.5-.1 2.3 0 1.4.1 2.6.3 3.4.1.3.2.5.4.7s.5.2.7.2c.3 0 .6-.1.8-.4.2-.1.2-.4.2-.8v-.4h-.2v-2.1h1.1v-.3h-1.4v2.5h-.2v.4c0 .2 0 .4-.1.4 0 0-.1.1-.2.1s-.2 0-.2-.1c0 0-.1-.1-.1-.2-.2-.6-.3-1.9-.2-3.2v-1h3.3v-.4h-3.3c0-.3 0-.6.1-.9h1.3v-.4h-1.2c0-.4.1-.8.2-1 .1-.2.2-.2.3-.2.1 0 .2 0 .2.1s.1.1.1.3V8h2.2V5.1h-2.3v-.7h10.4v1.9h1.4V4.4h6.4v3.4h1.2l.3.9H46v-.4c0-.7-.2-1.4-.5-2V5.1h-1.8c-.2-.1-.4-.1-.6-.1h-2.6v4.7H40V8.6h-1.4v1.1h-.7c0-.9-.1-1.8-.3-2.5V5.1h-1.9c-.3-.1-.4-.1-.6-.1s-.3 0-.5.1h-1.7v1.5c-.3.8-.5 1.9-.5 3.3v.1h.8v-.1c0-1.7.3-2.8.6-3.4.2-.4.8-.7 1.4-.7.7 0 1.2.3 1.4.8.2.5.4 1.8.4 3.3v.1h4.2V5.8h2c1 0 1.9 1 1.9 2.6 0 .9-.2 1.6-.5 2-.4.6-.9.8-2.1.9h-.7V15h.8v-2.1h2.2V15h.3v-2.1h1v-.3h-3.6V12c1.2 0 2.1-.4 2.6-1.2l.3-.6h1.1v-.3h-1c.1-.3.2-.6.2-.9h3.1l-.1-.3-1.2-3.6h-.8v-.7H55v2h-1v.4h1.8v-3h-.4zM4.8 11.3v-.2C5.6 12 6 13 6 13.9c0 .2-.1.4-.1.5s-.2.1-.3.1c-.2 0-.3-.1-.4-.1-.1-.1-.2-.3-.2-.7v-.2h-.2v-2.2zm2.5-5.9V6c0-.1-.1-.1-.1-.2-.1-.2-.3-.3-.4-.4h.5zm13.2 3.3l-1-3.3h1v3.3zM14 12.2h-.6v-.8l.6-1.5v2.3zm-1.6-4.1l-1-2.7h2l-1 2.7zm13.5-2v-.7h.7c-.2.2-.5.4-.7.7m4.2-.7v1c-.1-.2-.3-.4-.5-.6-.1-.2-.3-.3-.4-.4h.9zm8.8 3.5h.7v.8h-.7v-.8zm-5.7-3v-.5h.5c-.2.1-.4.3-.5.5m3.3-.5h.7v.8c-.2-.4-.4-.6-.7-.8m7.9 0h.6v.5c-.2-.2-.4-.4-.6-.5m2.4 0l.7 2h-.8v-2h.1zm-7.2.6h-.7V4.4h.7V6z"/><path class="st0" d="M55.7 7.6H53V5.4h1.1v-.3h-1.8l-2.2 6.2v4.6h-.5v-4.7s-.2-.7-.4-1.3H48v.3h.4c.1.3.2.7.3.9h-3.3v.3h2.2v3.4h.3v-3.4h.9v4.4h-2.3v-2.1h-.3v2.1h-2.5v-2.1h-.3v2.1h-2.2v-4.6H37v.2c0 1.6-.2 2.8-.5 3.6-.2.5-.8.9-1.5.9-.8 0-1.4-.4-1.6-1.1-.2-.7-.3-1.8-.4-3.2v-.4h-1v.4h.3c0 1.1.1 2 .2 2.7h-.3V17h-7.6v-.8h1.8c.4.3.9.4 1.4.4.5 0 1-.2 1.4-.4h.8v-1c.1-.4.2-.8.2-1.3v-.1H30V13h1v3.2h.3v-3.5h-1.5v1.1h-.2v.1c0 .5-.1.8-.2 1.1-.1.3-.3.5-.5.6-.3.2-.6.3-.9.3-.5 0-.8-.1-1.1-.4-.3-.2-.5-.6-.6-1.2-.1-.8-.3-1.9-.3-3.1 0-1.1 0-1.9.1-2.7v-.2h-1.7v2.2h-.9v-2h-.3v2.1h-.6v-3h.2v-.3h-1v8.3h-.5l-2.7-8.2V17H12v-1.1H8.7v.3h3.1v.8h-6v-.4c.6-.1 1.1-.3 1.5-.8.5-.5.7-1.2.7-2 0-.5-.1-1-.2-1.5h2.5v1H8.6v1.5H9v-1.1h2.3v.9h-1.2v.4H12v-3.8l-2.2-6v-.1H8.5v2.7h.8v.8H6.4v-1h.2c0-.4-.1-.7-.3-1-.2-.1-.5-.3-.9-.3-.3 0-.6.1-.8.4-.2.2-.3.5-.3.9 0 .8.3 1.5 1.1 2.2 1.3 1.3 2 2.8 2 4.1 0 1.2-.8 1.9-1.8 2-1.1 0-1.8-.7-1.8-2v-.5h-.3V12H0v5.5h55.7V7.6zm-25.9 8.3h-.1l.1-.1v.1zm-22.6-5c-.2-.3-.3-.5-.5-.8h.5v.8zm1.7-5.5h.2l.8 2.2h-1V5.4zm0 4.7h.4v.8h-.4v-.8zM5.1 7.6c0-.3.2-.4.3-.4.2 0 .2 0 .3.1.1.1.1.2.2.5h.2V9h3.2v.8h-.8v1.4h1.1V7.9h.4l1.3 3.5v2h-.6V11h-.3v1.1H7.8c-.1-.2-.1-.3-.2-.5V9.8H6.4c-.1-.2-.3-.4-.5-.6-.6-.7-.8-1-.8-1.6m46.4 2.1v2.5h-.6v-.8l.6-1.7zm-14.2 5.5c0-.1.1-.2.1-.3h2v-.3h-1.9c.2-.8.3-1.8.4-3h1v1.8h-.2v.3h.5v-2.1h1.3v.6h-.3v1.4h.3v2.2h-1.3v.3h7v.9H35.3v-.4c.4 0 .8-.2 1.2-.4h1.1v-.3h-.7c.1-.2.3-.4.4-.7m-4.5-.2c.1.3.3.6.5.9h-.7v-1.4c.1.2.1.4.2.5m-.2 1.2h1.1c.4.2.8.4 1.3.4v.4h-2.3v-.8zm-13.1-3.8l1.3 4.1h1.8v-5.6h1.8v4h.3V8.7h.6c-.1.8-.1 1.6-.1 2.6 0 1.2.1 2.3.3 3.2.1.6.3 1.1.7 1.4h-1.8V17h-.9v-5.1h-.3V17h-2.7v-1h-.3v1h-.6l-.1-4.6zm-18.8.1h2.5v.9H1.5v.3H3v.2c0 .2 0 .5.1.7h-.3v.4h.3c.1.3.3.6.5.9.5.5 1.1.8 1.9.8v.3H1.6v-.8h1.3v-.3H1.6v-1.1h-.3V17H.7v-4.5zM46.5 17v-.8h5.6v-.3h-1.2V15h3.4V8.8h-1.5v.3H54v5.5h-3v-.9h.8v-.3H51v-.9h.9V8.8l.8-2.4V8H55v7.9h-1.5v.3H55v.8h-8.5zM233 13.8c0 .3.1.5.4.5.2 0 .3-.2.3-.3 0-.2-.1-.4-.3-.4l-.2-.1c-.3-.1-.5-.3-.5-.6 0-.4.3-.6.7-.6.6 0 .6.4.6.6v.1h-.4c0-.2-.1-.3-.3-.3-.2 0-.3.1-.3.3 0 .2.1.3.3.4l.2.1c.3.1.5.3.5.6 0 .5-.3.7-.8.7-.6 0-.7-.4-.7-.7V14l.5-.2zm1.9-1c.5 0 .6.4.6.9s-.2.9-.6.9-.6-.4-.6-.9c0-.6.1-.9.6-.9m0 1.5c.2 0 .3-.2.3-.6 0-.4 0-.6-.3-.6-.2 0-.3.3-.3.6 0 .4 0 .6.3.6m1.8 0c-.1.1-.3.2-.4.2-.3 0-.4-.1-.4-.6v-1.2h.4V14c0 .2.1.3.2.3s.3-.1.3-.3v-1.2h.4v1.7h-.3l-.2-.2zm.7-1.5h.3v.2c.1-.1.2-.2.4-.2.3 0 .4.1.4.5v1.3h-.4v-1.2c0-.2-.1-.3-.2-.3s-.3.1-.3.3v1.1h-.4l.2-1.7zm2.4 1.5c-.1.1-.1.3-.4.3-.4 0-.6-.3-.6-.9 0-.8.3-.9.5-.9s.3.1.4.2v-.8h.4v2.3h-.3v-.2zm-.4-1.3c-.2 0-.3.2-.3.6 0 .4.1.6.3.6.2 0 .3-.2.3-.6.1-.3 0-.6-.3-.6m.9-.2h.2v-.5h.4v.5h.3v.3h-.3v1c0 .1 0 .2.2.2h.1v.3h-.3c-.2 0-.4-.1-.4-.4v-1.1h-.2v-.3zm1 0h.4v.3c.1-.2.2-.3.4-.3h.1v.4h-.1c-.2 0-.3.1-.3.4v1h-.4l-.1-1.8zm2.2 1.4c0 .1 0 .1.1.1h.1v.2h-.2c-.1 0-.3-.1-.3-.2-.1.2-.2.2-.4.2-.3 0-.4-.1-.4-.5s.2-.5.4-.5l.3-.1c.1 0 .2-.1.2-.2 0-.2-.1-.3-.2-.3-.2 0-.3.2-.3.3h-.3c0-.4.1-.6.6-.6.3 0 .6.1.6.4l-.2 1.2zm-.4-.6c-.1.1-.3.1-.4.2s-.1.1-.1.3c0 .1.1.3.2.3.2 0 .3-.2.3-.4v-.4zm1.9.3c0 .4-.2.7-.6.7-.5 0-.6-.4-.6-.9s.1-.9.6-.9.6.4.6.6h-.4c0-.2-.1-.4-.2-.4-.2 0-.3.3-.3.6 0 .4.1.6.3.6.2 0 .3-.2.3-.4l.3.1zm.2-1.7h.4v1.3l.5-.7h.4l-.5.7.6 1h-.4l-.4-.8-.2.3v.5h-.4zm-9.6 3.1h.5l.6 2.3h-.4l-.1-.6h-.7l-.1.6h-.4l.6-2.3zm.4 1.5l-.3-1.1-.3 1.1h.6zm.8-1.5h.4v2.3h-.4zm.7 0h.3v.8c.1-.1.2-.2.4-.2.3 0 .5.1.5.9 0 .6-.2.9-.6.9-.2 0-.3-.1-.4-.3v.2h-.3l.1-2.3zm.6 2.1c.2 0 .3-.2.3-.6 0-.5-.1-.6-.3-.6-.3 0-.3.2-.3.6 0 .3.1.6.3.6m1.8 0c-.1.1-.3.2-.4.2-.3 0-.4-.1-.4-.6v-1.2h.4V17c0 .2.1.3.2.3s.3-.1.3-.3v-1.2h.4v1.7h-.3l-.2-.1z"/><path class="st0" d="M240.6 15.9h.3v.2c.1-.1.2-.2.4-.2s.4.1.4.3c.1-.2.2-.3.4-.3s.4.1.4.5v1.3h-.4v-1.2c0-.2-.1-.3-.2-.3s-.3.1-.3.3v1.1h-.4v-1.2c0-.2-.1-.3-.2-.3s-.3.1-.3.3v1.1h-.4l.3-1.6zm3.7-.1c.5 0 .6.4.6.9s-.2.9-.6.9-.6-.4-.6-.9c-.1-.5.1-.9.6-.9m0 1.6c.2 0 .3-.2.3-.6 0-.4 0-.6-.3-.6-.2 0-.3.3-.3.6 0 .4 0 .6.3.6m.9-1.5h.3v.2c.1-.1.2-.2.4-.2.3 0 .4.1.4.5v1.3h-.3v-1.2c0-.2-.1-.3-.2-.3s-.3.1-.3.3v1.1h-.4l.1-1.7zm7.2-3c-.2 0-.4.1-.5.2v1.4c.2-.2.4-.5.6-.7.1-.2.3-.5.1-.8 0-.1-.1-.1-.2-.1m1.6-2.7l-2.6-1.9v-.1l.1-.1c0-.1-.1-.1-.1-.1l-.1.1c0 .1 0 .1.1.1v.1l-2.6 1.9c0 .1.2.1.5.2v4.3c-.3.1-.5.1-.5.2v.7c0 .1.2.1.5.2 0 .3.1.6.3.9l-.1 1.9c.1.1.2.2.3.2l.1-1.7c.3.4.8.6 1.2.7l.3.4v.2l-.8 1.1.8-1.1V20h.2v-1.6l.8 1.1-.8-1.1v-.2l.3-.4c.5-.1.9-.3 1.2-.7l.1 1.7c.1-.1.2-.1.3-.2l-.1-1.9.3-.9c.3-.1.5-.1.5-.2v-.7c0-.1-.2-.1-.5-.2v-4.3c.1 0 .3-.1.3-.2m-3.4 4.3c-.1-.2-.2-.4-.2-.7l-.3.3c-.5-.6-.7-1.4-.7-2.3l.3-.2c0 .6.1 1.1.3 1.6 0 .1.1.2.1.2l.1-.2c-.1-.6-.2-1.2-.2-1.8v-.2l.4-.3v.6c0 .7.1 1.3.3 2h.1c.1 0 0-.1.1-.2v-2.6l.4-.2v4.8c-.4-.1-.6-.4-.7-.8m.6 3.6l-.2-.3h.2v.3zm.2 0v-.3h.2l-.2.3zm1.5-5.4c.2.2.2.5.2.7-.2.6-.6 1-1 1.5l-.6.6v-4.8c.5.1.9.3 1.3.6.3.2.5.5.5.9 0 .2-.2.3-.4.5m-.2-1.1c-.2-.2-.5-.3-.8-.4v1.4c.2-.1.4-.1.5-.2.2-.1.4-.2.4-.4.1-.1 0-.3-.1-.4m6.4.6c0-.1 0-.1 0 0 .1-.1.1-.1.2-.1V12h-.8v.1h.3v.3c0 .2-.1.4-.1.6l-.3 1.1-.4-1.2-.3-.9h-.1c-.1.3-.2.7-.4 1l-.5 1.2-.3-1.3c0-.1 0-.2-.1-.4v-.3h.3V12h-1v.1c.1 0 .2 0 .2.1 0 0 .1.1.1.2l.4 1.6.2.8h.2c0-.1.1-.3.1-.3s0-.1.1-.2l.2-.6.4-.9.4 1.2c.1.2.2.5.3.9h.2l.2-.9c.1-.2.1-.4.1-.4l.2-.6c.1-.6.1-.8.2-.8m2.2 2.2c0-.1-.1-.2-.2-.5l-.7-1.7h-.1c-.1.4-.3.6-.3.7l-.4 1c-.1.3-.2.4-.2.5 0 .1-.1.1-.1.1h-.3v.1h.8v-.1h-.3v-.2l.2-.4h1l.2.5v.1h-.3v.1h1v-.1c-.2 0-.2 0-.3-.1 0 .1 0 .1 0 0m-1.6-.7l.4-1 .4 1h-.8zm2.7-1.5h-1v.6h.1v-.4h.7v2.2h-.3v.1h1v-.1h-.2l-.1-.1c-.1-.1 0-.1 0-.2v-1.9h.6v.4h.1v-.6h-.9m1.6.2v2.2h-.2v.1h1.9v-.6h-.1v.3s-.1 0-.2.1h-.9v-1h.8v.3h.1V13h-.1v.2h-.9v-1h.8c.1 0 .1 0 .2.1v.3h.1V12h-1.8v.1c.2.2.3.2.3.3 0-.1 0 0 0 0m2.9 2.2h-.2l-.1-.1v-2.2c.1 0 .2-.1.4-.1s.3 0 .4.1c.1.1.1.2.1.3 0 .2 0 .3-.2.4-.1.1-.3.1-.5.1h-.1v.1c.1.1.2.3.4.4.1.1.2.2.3.4.2.2.3.4.4.5h.4v-.1h-.1s-.1-.1-.2-.3l-.4-.6c-.1-.1-.2-.2-.2-.3.2 0 .3-.1.4-.1.1-.1.2-.1.2-.2s.1-.2.1-.3 0-.2-.1-.3l-.2-.2c-.1-.1-.3-.1-.5-.1h-1.1v.1h.2l.1.1v2.2h-.3v.1h.6c-.1.1 0 .1.2.1zm1.3-2v-.4h.8v2.3l-.1.1h-.3v.1h1.1v-.1h-.3c-.1 0 0 0-.1-.1v-2.3h.6v.4h.1V12h-2.2v.6h.4zm2.6 1.8c.1.1.2.2.4.3s.3.1.5.1c.4 0 .7-.1 1-.4.3-.3.4-.6.4-1v-.3c0-.1-.1-.2-.1-.3-.1-.1-.1-.2-.2-.3-.1-.1-.2-.2-.4-.2s-.3-.1-.5-.1-.4 0-.5.1c-.2.1-.3.2-.4.3s-.2.3-.3.4c0 .1-.1.3-.1.5s0 .3.1.5c-.1.1-.1.2.1.4m.1-1.6c.1-.2.2-.3.3-.4.1-.1.3-.1.5-.1.1 0 .2 0 .4.1s.2.1.3.1l.2.2c0 .1.1.2.1.3 0 .1.1.3.1.5s0 .4-.1.6-.2.3-.3.4c-.1.1-.3.1-.5.1-.1 0-.3 0-.4-.1-.1 0-.2-.1-.3-.2-.1-.1-.2-.2-.2-.4 0-.1-.1-.2-.1-.3v-.3c-.1-.2-.1-.4 0-.5m4.9-.6v.1h.3v.3c0 .2-.1.4-.1.6l-.3 1-.4-1.1c-.1-.2-.2-.5-.3-.8h-.1l-.3.9-.4 1.1-.3-1.2c0-.1 0-.2-.1-.4v-.2h.3v-.1h-.9v.1c.1 0 .2 0 .2.1 0 0 0 .1.1.2l.3 1.4.2.7h.2c0-.1.1-.2.1-.3 0-.1 0-.1.1-.2l.2-.6.4-.9.4 1.1c.1.2.2.5.3.9h.2l.2-.8c.1-.2.1-.3.1-.4l.2-.6c.1-.3.1-.4.1-.5s0-.1.1-.1h.2v-.1h-.4c-.4-.2-.5-.2-.6-.2m2.7 2.1v.1s-.1 0-.2.1h-.9v-1h.8v.3h.1V13h-.1v.2h-.9v-1h.8c.1 0 .1 0 .2.1v.3h.1V12h-1.8v.1h.2l.1.1v2.2h-.2v.1h1.9v-.6h-.1c.1.2.1.3 0 .4m2.7.2c-.1 0-.1 0 0 0 0 0-.1-.1-.2-.3l-.4-.6c-.1-.1-.2-.2-.2-.3.2 0 .3-.1.4-.1.1-.1.2-.1.2-.2s.1-.2.1-.3 0-.2-.1-.3l-.2-.2c-.1 0-.3-.1-.5-.1h-1.1v.1h.2l.1.1v2.2h-.3v.1h1.1v-.1h-.2l-.1-.1c-.1-.1 0-.1 0-.2v-1.9c.1 0 .2-.1.4-.1s.3 0 .4.1c.1.1.1.2.1.3 0 .2 0 .3-.2.4-.1.1-.3.1-.5.1h-.1v.1c.1.1.2.3.4.4.1.1.2.2.3.4.2.2.3.4.4.5h.4v-.1c-.4.2-.4.2-.4.1m-15.6 1.1c0 .1-.1.3-.3.6l-.5 1-.5-1.1c-.1-.1-.1-.3-.2-.5h-.6v.1h.2v1.8h-.2v.1h.8v-.1h-.2v-1.6l.7 1.4.1.2v.1h.1c.1-.2.1-.3.1-.4 0-.1.1-.2.2-.4l.5-1.1v1.6h-.2v.1h.8v-.1h-.2v-1.8h.2v-.1h-.3c-.3.2-.3.2-.5.2m2.4 0c.1.1.2.1.2.1v1.6s0 .1-.1.1c0 0-.1.1-.2.1h-.5c-.1 0-.1 0-.2-.1-.1 0-.1-.1-.1-.2v-1.4h.2v-.1h-.8v.1h.2v1.6c0 .1.1.1.1.2s.1.1.2.1h.8c.1 0 .2-.1.3-.1.1-.1.1-.2.2-.2v-1.5h.2v-.1h-.4c.1-.2 0-.2-.1-.2m2.1 1s-.1-.1-.2-.1h-.6c-.1 0-.1-.1-.2-.1v-.2c0-.1 0-.2.1-.3.1-.1.2-.1.3-.1.1 0 .2 0 .3.1l.1.1v.3h.1v-.4c-.1 0-.2-.1-.3-.1h-.3c-.1 0-.3 0-.4.1-.1.1-.2.1-.3.2-.1.1-.1.2-.1.3v.2c0 .1.1.1.1.2 0 0 .1.1.2.1h.5c.1 0 .1 0 .1.1l.1.1v.2c0 .1 0 .2-.1.2 0 .1-.1.1-.2.2-.1 0-.2.1-.3.1h-.2c-.1 0-.1 0-.2-.1l-.1-.1v-.2h-.1v.5c.2.1.3.1.5.1s.5-.1.6-.2c.2-.1.2-.3.2-.5v-.2c.4-.4.4-.5.4-.5m.3-1c.1.1.2.1.2.1v1.8h-.2v.1h.9v-.1h-.2v-1.8h.2v-.1h-.9m1.6.2c.1-.1.2-.1.2-.2.1 0 .2-.1.4-.1s.3 0 .4.1l.2.2v.2h.1v-.5s-.1 0-.2-.1c-.1 0-.2-.1-.3-.1h-.2c-.4 0-.7.1-.9.3-.2.2-.3.5-.3.8v.3c0 .1.1.2.1.3.1.1.1.2.2.2.1.1.2.1.3.2.1 0 .3.1.4.1h.4c.2 0 .2-.1.3-.1l.1-.1c-.1 0-.1.1-.2.1h-.4c-.3 0-.5-.1-.7-.3s-.3-.4-.3-.7c0-.2 0-.3.1-.4.2 0 .3-.1.3-.2m23.8-7.5c-.4 0-.7.1-1.7.9V13c1.8-2 2.2-3.3 2.2-4 .1-.5-.2-.7-.5-.7m.2-2.6c0-.7-.8-1.3-1.8-1.3V8c1.2-.8 1.8-1.6 1.8-2.3"/><path class="st0" d="M299.1 4.2c0-.1-.1-.1 0 0l-1.3-.4-.2-.8v-.1l-1.3-.3-.1-.7s0-.1-.1-.1l-3.3-.6h-.2l-3.3.6s-.1 0-.1.1l-.1.7-1.3.3V3l-.2.7-1.2.3-.1.1c-.1.5-.1 1.1-.1 1.7 0 5 2.6 9.2 6.4 11.8l.1.1s.1 0 .1-.1c3.9-2.6 6.4-6.9 6.4-11.8 0-.6 0-1.1-.1-1.6m-6.9 11.2s-.1 0 0 0c-1-1.1-1.6-2.4-2.1-3.8l-.6.4c-.2.1-.3.1-.4-.1-.9-1.6-1.4-4.1-1.5-5.9 0-.1 0-.1.1-.2.2-.3.5-.6.8-.8 0-.1.1 0 .1.1 0 2.2.4 4.2 1 5.6 0 .1.1.1.2.1l.2-.1c-.4-1.6-.6-3.7-.5-6.2 0-.1 0-.1.1-.2.2-.1.5-.3.8-.4h.1c0 3.6.2 6.1.9 8 0 .1.1 0 .1 0V3.6c0-.1 0-.1.1-.1.3-.1.5-.1.9-.2l-.3 12.1zm1 0s-.1 0 0 0l-.1-12.1c2.3.2 3.8 1.1 3.8 2.5 0 .6-.2 1.2-.6 1.6.8.2 1 .8 1 1.5.1 1.3-.9 3.5-4.1 6.5m2.9 2l-.3-.6h-.2v.9h.1V17l.3.7h.1l.3-.7v.7h.1v-.9h-.2l-.2.6zm-1.3-.5h.3v.8h.1v-.8h.3v-.1h-.8l.1.1zm8.2-5.5l-1.4-6.7h1.2l.8 4.4.8-4.4h1l.9 4.4.8-4.4h1.1l-1.4 6.7h-1.1l-.8-4.3-.8 4.3zm6-6.7h1.5l1.4 6.7h-1.1l-.2-1.3H309l-.2 1.3h-1.1l1.3-6.7zm.2 4.4h1.1l-.5-2.9-.6 2.9zm4.1 2.3h-1.1V4.7h1c.4 0 .7.1 1 .1.3.1.6.2.8.4s.4.4.5.7c.1.3.2.6.2.9 0 .4-.1.8-.2 1-.2.3-.4.5-.7.8l1.2 2.9h-1.2l-.9-2.4c-.1 0-.1.1-.2.1s-.1 0-.2.1h-.1l-.1 2.1zm1.3-4.6c0-.3-.1-.5-.3-.7s-.5-.3-1-.3v2.4l.2-.1c.4-.1.6-.3.9-.5.1-.3.2-.5.2-.8m1.7 4.6V4.7h1l1.8 4.2V4.7h1v6.7h-1l-1.8-4.2v4.2zm4.6 0V4.7h3.2l-.2 1H322v1.7h1.5v1.1H322v1.9h2.1v1zm4.7 0h-1.1V4.7h1c.4 0 .7.1 1 .1.3.1.6.2.8.4s.4.4.5.7c.1.3.2.6.2.9 0 .4-.1.8-.2 1-.2.3-.4.5-.7.8l1.2 2.9h-1.2l-.9-2.4c-.1 0-.1.1-.2.1s-.1 0-.2.1h-.1l-.1 2.1zm1.4-4.6c0-.3-.1-.5-.3-.7s-.5-.3-1-.3v2.4l.2-.1c.4-.1.6-.3.9-.5.1-.3.2-.5.2-.8m7 2.4c0 .3-.1.6-.2.9-.1.3-.3.5-.6.7-.2.2-.5.4-.9.5-.4.1-.7.2-1.1.2h-.9V4.7h.9c.7 0 1.3.2 1.7.5.4.3.6.8.6 1.3 0 .2 0 .4-.2.7-.1.2-.3.4-.5.6.3.1.6.3.8.6.3.1.4.4.4.8m-1.5-2.6c0-.2-.1-.4-.3-.6-.2-.1-.5-.2-.9-.2v1.9h.2c.3-.1.6-.2.7-.4.2-.3.3-.5.3-.7m-.9 1.9l-.3.1v1.8c.5 0 .8-.1 1.1-.3.3-.2.5-.5.5-.9 0-.3-.1-.5-.4-.6-.2-.2-.5-.2-.9-.1m4 2.9h-1.1V4.7h1c.4 0 .7.1 1 .1.3.1.6.2.8.4s.4.4.5.7c.1.3.2.6.2.9 0 .4-.1.8-.2 1-.2.3-.4.5-.7.8l1.2 2.9H337l-.9-2.4c-.1 0-.1.1-.2.1s-.1 0-.2.1h-.1v2.1zm1.3-4.6c0-.3-.1-.5-.3-.7s-.5-.3-1-.3v2.4l.2-.1c.4-.1.6-.3.9-.5.1-.3.2-.5.2-.8m3.6 4.7c-.6 0-1.2-.3-1.5-.9-.4-.6-.6-1.4-.6-2.6s.2-2 .6-2.6.9-.9 1.5-.9 1.2.3 1.5.9.6 1.4.6 2.6c0 1.1-.2 2-.6 2.6-.3.6-.8.9-1.5.9m0-1.1c.3 0 .6-.2.7-.6.2-.4.3-1 .3-1.8s-.1-1.4-.3-1.8c-.2-.4-.4-.6-.7-.6s-.6.2-.7.6c-.2.4-.3 1-.3 1.8s.1 1.4.3 1.8.4.6.7.6m2.7-4.1c0-.2 0-.5.1-.7s.2-.4.4-.5.3-.3.5-.4c.2-.1.4-.1.6-.1.4 0 .8.1 1 .3s.5.6.7 1.1l-.9.6c-.1-.3-.2-.5-.3-.7-.1-.2-.3-.2-.5-.2s-.3.1-.4.2-.1.3-.1.4c0 .2 0 .3.2.5.1.2.3.3.5.5l.7.5c.4.3.6.5.8.8.2.3.2.6.2 1 0 .3 0 .5-.1.7-.1.2-.2.4-.4.6-.2.2-.4.3-.6.4s-.5.1-.7.1c-.5 0-.9-.1-1.2-.4-.3-.3-.6-.6-.8-1.2l.9-.6c.1.3.2.6.4.8s.4.3.7.3c.2 0 .4-.1.5-.2.1-.1.2-.3.2-.5s-.1-.4-.2-.6c-.1-.2-.3-.3-.5-.5l-.8-.6c-.3-.3-.6-.5-.7-.8-.2-.2-.2-.5-.2-.8m4.2 5.2c-.2 0-.3-.1-.5-.2-.1-.1-.2-.3-.2-.5s.1-.3.2-.4c.1-.1.3-.2.5-.2s.3.1.5.2c.1.1.2.3.2.4 0 .2-.1.3-.2.5-.1.1-.3.2-.5.2m-29.1 3.7h-.5v-2h.8c.3 0 .5.1.6.2s.2.3.2.5v.2s-.1.1-.1.2l-.2.2c-.1.1-.2.1-.3.1l-.4.1v.5zm.3-1.5h-.2v.6l.2-.1c.1 0 .2-.1.2-.1 0-.1.1-.1.1-.2s0-.1-.1-.2-.1 0-.2 0m1.1-.5h.5v2h-.5zm.8 1c0-.2 0-.3.1-.4 0-.1.1-.2.2-.3.1-.1.2-.2.3-.2s.2-.1.4-.1.4 0 .5.1.3.2.3.4l-.4.3c0-.1-.1-.2-.2-.2-.1-.1-.1-.1-.2-.1s-.2.1-.3.1c-.1.1-.1.2-.1.4s0 .3.1.4.2.1.3.1c.1 0 .2 0 .2-.1l.2-.2.4.3c-.1.1-.2.3-.4.4s-.3.1-.5.1c-.1 0-.3 0-.4-.1-.1-.1-.2-.1-.3-.2-.1-.1-.1-.2-.2-.3v-.4m3 1h-.5v-1.5h-.6v-.5h1.8v.5h-.7z"/><path class="st0" d="M325.6 14.5v-1.2h.5v1.2c0 .1 0 .2-.1.3 0 .1-.1.2-.2.2-.1.1-.2.1-.3.1-.1 0-.2.1-.4.1-.1 0-.2 0-.4-.1s-.2-.1-.3-.1l-.2-.2c0-.1-.1-.2-.1-.3v-1.2h.5v1.2c0 .1 0 .2.1.2s.1.1.2.1.2 0 .2-.1c.4-.1.5-.1.5-.2m1.4.7h-.5v-2h.8c.3 0 .5.1.6.2.1.1.2.3.2.5 0 .1 0 .2-.1.3-.1.1-.1.2-.3.2l.5.8h-.6l-.3-.6-.2.1-.1.5zm.2-1.5h-.2v.6l.3-.1c.1 0 .2-.1.2-.1 0-.1.1-.1.1-.2s0-.1-.1-.1c-.1-.1-.1-.1-.3-.1m1.2 1.5v-2h1.5l-.1.5h-.9v.4h.8v.3h-.8v.4h1v.4zm1.7-1.3c0-.2.1-.3.2-.5.1-.1.3-.2.5-.2s.3 0 .5.1c.1.1.3.1.4.3l-.3.4c0-.1-.1-.1-.2-.2s-.2-.1-.3-.1h-.1l-.1.1v.1s.1.1.2.1l.3.1c.2.1.4.1.5.2.1.1.1.2.1.3v.2s-.1.1-.1.2c-.1.1-.1.1-.3.1-.1 0-.2.1-.4.1s-.4 0-.5-.1c-.1-.1-.3-.2-.4-.3l.3-.4c.1.1.1.2.2.2.1.1.2.1.3.1.1 0 .1 0 .2-.1l.1-.1v-.1l-.1-.1-.4-.1c-.2-.1-.3-.1-.4-.2-.2.1-.2 0-.2-.1m-28.5 2.7h.2l.1.9.2-.9h.1l.3.9.1-.9h.2l-.3 1.1h-.1l-.2-.8-.2.8h-.2zm1.6 0l.4 1h-.1l-.1-.3h-.4l-.1.3h-.1l.4-1zm.2.7l-.2-.5-.2.5h.4zm.3.4v-1h.2c.2 0 .4.1.4.3 0 .1-.1.2-.2.3l.3.5h-.1l-.2-.4h-.2v.4c-.1-.1-.2-.1-.2-.1zm.1-1v.5h.1c.2 0 .3-.1.3-.2s-.1-.2-.3-.2c0-.1-.1-.1-.1-.1zm.7-.1h.1l.5.9v-.9h.1v1.1h-.1l-.5-.9v.9h-.1zm.9 0h.7v.1h-.5v.4h.4v.1h-.4v.4h.5v.1h-.7zm.8 1.1v-1h.2c.2 0 .4.1.4.3 0 .1-.1.2-.2.3l.3.5h-.1l-.2-.4h-.2v.4c0-.1-.2-.1-.2-.1zm.2-1v.5h.1c.2 0 .3-.1.3-.2s-.1-.2-.3-.2c0-.1-.1-.1-.1-.1zm1.2 1h-.3v-1h.2c.2 0 .4.1.4.3 0 .1 0 .1-.1.2.1 0 .2.1.2.2s-.1.3-.4.3m-.2-1v.4h.2c.1 0 .2-.1.2-.2s-.1-.2-.3-.2h-.1zm0 .5v.3h.2c.2 0 .3-.1.3-.2s-.1-.2-.3-.2l-.2.1zm.7.5v-1h.2c.2 0 .4.1.4.3 0 .1-.1.2-.2.3l.3.5h-.1l-.2-.4h-.2v.4c0-.1-.2-.1-.2-.1zm.1-1v.5h.1c.2 0 .3-.1.3-.2s-.1-.2-.3-.2c.1-.1-.1-.1-.1-.1zm.7.4c0-.3.2-.5.4-.5.3 0 .4.2.4.5s-.2.5-.4.5-.4-.1-.4-.5m.7 0c0-.3-.1-.4-.3-.4s-.3.2-.3.4.1.4.3.4c.2.1.3-.1.3-.4m.6-.5c.2 0 .3.1.4.2l-.1.1c0-.1-.2-.2-.3-.2-.1 0-.2.1-.2.1 0 .1 0 .1.2.2l.2.1c.2.1.2.1.2.3 0 .2-.1.3-.3.3-.2 0-.3-.1-.4-.2l.1-.1c0 .1.2.2.3.2.1 0 .2-.1.2-.2s-.1-.1-.2-.2l-.2-.1c-.2-.1-.2-.1-.2-.3 0-.1.1-.2.3-.2m.5 1s0-.1 0 0c.1-.1.2 0 .2 0-.1 0-.1.1-.2 0 0 .1 0 0 0 0m.3-.3v-.6h-.2v-.1h.4v.1h-.2v.6zm.6 0l-.2-.6v.6h-.1v-.7h.1l.2.5.2-.5h.1v.7h-.1v-.6l-.2.6zm.7-.7h.1l.1.9.3-.9h.1l.2.9.2-.9h.1l-.2 1.1h-.2l-.2-.8-.2.8h-.1zm1.6.6c0-.1 0-.2-.1-.2s-.1 0-.2.1l-.1-.1c0-.1.1-.2.3-.2.2 0 .2.1.2.2v.3c0 .1 0 .1.1.1l-.1.1-.1-.1c0 .1-.1.1-.2.1s-.2-.1-.2-.2.1-.2.2-.2l.2.1zm-.2.4c.1 0 .1 0 .2-.1v-.2h-.2c-.1 0-.1.1-.1.1 0 .1 0 .2.1.2m.5-.6h.1c0-.1.1-.1.2-.1h.1v.1h-.1c-.1 0-.1 0-.1.1v.5h-.1l-.1-.6z"/><path class="st0" d="M314.6 17h.1c.1-.1.1-.1.2-.1s.2.1.2.2v.5h-.1v-.5c0-.1-.1-.2-.2-.2s-.1 0-.2.1v.5h-.1V17zm.8.3c0 .2.1.2.2.2s.2 0 .2-.1l.1.1c-.1.1-.2.2-.3.2-.2 0-.3-.1-.3-.4s.2-.4.3-.4c.2 0 .3.1.3.4h-.5zm0-.1h.4c0-.1-.1-.2-.2-.2s-.2.1-.2.2m.6-.2h.1c0-.1.1-.1.2-.1h.1v.1h-.1c-.1 0-.1 0-.1.1v.5h-.1l-.1-.6zm1.1.7h-.3v-1h.2c.2 0 .4.1.4.3 0 .1 0 .1-.1.2.1 0 .2.1.2.2s-.2.3-.4.3m-.2-1v.4h.2c.1 0 .2-.1.2-.2s-.1-.2-.3-.2h-.1zm0 .5v.3h.2c.2 0 .3-.1.3-.2s-.1-.2-.3-.2l-.2.1zm.7-.2h.1c0-.1.1-.1.2-.1h.1v.1h-.1c-.1 0-.1 0-.1.1v.5h-.1l-.1-.6zm.4.3c0-.2.1-.4.3-.4s.3.1.3.4c0 .2-.1.4-.3.4-.2 0-.3-.2-.3-.4m.5 0c0-.2-.1-.3-.2-.3s-.2.1-.2.3c0 .2.1.3.2.3.2 0 .2-.1.2-.3m.5-.4c.1 0 .2.1.3.2l-.1.1c-.1-.1-.1-.2-.2-.3-.1.1-.1.1-.1.2 0 0 0 .1.1.1h.1c.1 0 .2.1.2.2s-.1.2-.2.2-.2-.1-.3-.2l.1-.1c0 .1.1.1.2.1s.1 0 .1-.1c0 0 0-.1-.1-.1h-.1c-.1 0-.2-.1-.2-.2 0 0 .1-.1.2-.1m.4.7s0-.1 0 0c.1-.1.2 0 .2 0-.1 0-.1.1-.2 0 0 .1 0 0 0 0m.5-1h.7v.1h-.5v.4h.4v.1h-.4v.4h.5v.1h-.7zm.8.4h.1c.1-.1.1-.1.2-.1s.2.1.2.2v.5h-.1v-.5c0-.1-.1-.2-.2-.2s-.1 0-.2.1v.5h-.1V17zm.9 0v.4c0 .1 0 .1.1.1h.1v.1h-.1c-.1 0-.2-.1-.2-.2l.1-.4h-.3v-.1l.3.1-.1-.3h.1v.3l.2-.1v.1h-.2zm.3.6s0-.1 0 0c.1-.1.2 0 .2 0s-.1.1-.2 0c0 .1 0 0 0 0m1.1-.5c0-.3.2-.5.5-.5s.5.2.5.5-.2.5-.5.5-.5-.1-.5-.5m1 0c0-.2-.2-.5-.5-.5s-.5.2-.5.5.2.5.5.5.5-.2.5-.5m-.7 0c0-.2.1-.3.2-.3s.2 0 .2.1h-.1c0-.1-.1-.1-.1-.1-.1.1-.1.2-.2.3l.2.2c.1 0 .1 0 .1-.1h.1c0 .1-.1.1-.2.1-.1.1-.2 0-.2-.2m1.2.1l-.3.4h.4v.1h-.5v-.1l.4-.4v-.3c0-.1-.1-.2-.2-.2s-.2.1-.2.2l-.1-.1c.1-.1.2-.2.3-.2.2 0 .3.1.3.3.1.1 0 .2-.1.3m.3-.1c0-.3.1-.5.4-.5.2 0 .4.2.4.5s-.1.5-.4.5c-.3.1-.4-.1-.4-.5m.6 0c0-.3-.1-.4-.2-.4s-.2.2-.2.4.1.4.2.4c.1.1.2-.1.2-.4m.4-.4h-.2v-.1h.3v1.1h-.1zm.9.4c0 .4-.1.6-.4.6-.1 0-.2-.1-.3-.2l.1-.1c0 .1.1.1.2.1s.2-.2.2-.4c0 .1-.1.2-.2.2-.2 0-.3-.1-.3-.3s.1-.3.3-.3c.2-.1.4.1.4.4m-.6-.1c0 .1.1.2.2.2s.2-.1.2-.2-.1-.2-.2-.2c-.1-.1-.2 0-.2.2m.9-.4h.1l.2.9.2-.9h.1l.3.9.1-.9h.1l-.2 1.1h-.1l-.2-.8-.2.8h-.2zm1.6.6c0-.1 0-.2-.1-.2s-.1 0-.2.1l-.1-.1c0-.1.1-.2.3-.2.2 0 .2.1.2.2v.3c0 .1 0 .1.1.1l-.1.1-.1-.1c0 .1-.1.1-.2.1s-.2-.1-.2-.2.1-.2.2-.2l.2.1zm-.1.4c.1 0 .1 0 .2-.1v-.2h-.2c-.1 0-.1.1-.1.1-.1.1 0 .2.1.2m.4-.6h.1c0-.1.1-.1.2-.1h.1v.1h-.1c-.1 0-.1 0-.1.1v.5h-.1l-.1-.6zm.5 0h.1c.1-.1.1-.1.2-.1s.2.1.2.2v.5h-.1v-.5c0-.1-.1-.2-.2-.2s-.1 0-.2.1v.5h-.1V17zm.8.3c0 .2.1.2.2.2s.2 0 .2-.1l.1.1c-.1.1-.2.2-.3.2-.2 0-.3-.1-.3-.4s.2-.4.3-.4c.2 0 .3.1.3.4h-.5zm0-.1h.4c0-.1-.1-.2-.2-.2s-.2.1-.2.2m.6-.2h.1c0-.1.1-.1.2-.1h.1v.1h-.1c-.1 0-.1 0-.1.1v.5h-.1l-.1-.6zm1.1.7h-.3v-1h.2c.2 0 .4.1.4.3 0 .1 0 .1-.1.2.1 0 .2.1.2.2s-.2.3-.4.3m-.2-1v.4h.2c.1 0 .2-.1.2-.2s-.1-.2-.3-.2h-.1zm0 .5v.3h.2c.2 0 .3-.1.3-.2s-.1-.2-.3-.2l-.2.1zm.7-.2h.1c0-.1.1-.1.2-.1h.1v.1h-.1c-.1 0-.1 0-.1.1v.5h-.1l-.1-.6zm.4.3c0-.2.1-.4.3-.4s.3.1.3.4c0 .2-.1.4-.3.4s-.3-.2-.3-.4m.5 0c0-.2-.1-.3-.2-.3s-.2.1-.2.3c0 .2.1.3.2.3s.2-.1.2-.3m.5-.4c.1 0 .2.1.3.2l-.1.1c-.1-.1-.2-.2-.2-.3-.1.1-.1.1-.1.2 0 0 0 .1.1.1h.1c.1 0 .2.1.2.2s-.1.2-.2.2-.2-.1-.3-.2l.1-.1c0 .1.1.1.2.1s.1 0 .1-.1c0 0 0-.1-.1-.1h-.1c-.1 0-.2-.1-.2-.2-.1 0 0-.1.2-.1m.3.7s.1-.1 0 0c.1-.1.2 0 .2 0s-.1.1-.2 0c.1.1 0 0 0 0m.6-1h.7l-.1.1h-.5v.4h.5v.1h-.5v.4h.6v.1h-.7zm.8.4h.1c.1-.1.1-.1.2-.1s.2.1.2.2v.5h-.1v-.5c0-.1-.1-.2-.2-.2s-.1 0-.2.1v.5h-.1V17zm.9 0v.4c0 .1 0 .1.1.1h.1v.1h-.1c-.1 0-.2-.1-.2-.2l.1-.4h-.3v-.1l.3.1-.1-.3h.1v.3l.2-.1v.1h-.2zm.3.6s0-.1 0 0c.1-.1.2 0 .2 0-.1 0-.1.1-.2 0 0 .1 0 0 0 0m.9-1l.4 1h-.1l-.1-.3h-.4l-.1.3h-.1l.4-1zm.2.7l-.2-.5-.2.5h.4zm.3-.7h.1v1.1h-.1zm.3 0h.1v1.1h-.1zm.5 1.1v-1h.2c.2 0 .4.1.4.3 0 .1-.1.2-.2.3l.3.5h-.1l-.2-.4h-.2v.4c-.1-.1-.2-.1-.2-.1zm.1-1v.5h.1c.2 0 .3-.1.3-.2s-.1-.2-.3-.2c0-.1-.1-.1-.1-.1zm.7 0s0-.1 0 0c.1-.1.2 0 .2 0-.1.1-.1.1-.2 0 0 .1 0 .1 0 0m0 .3h.1v.7h-.1V17zm.6 1c-.1 0-.2-.1-.3-.1l.1-.1c0 .1.1.1.2.2.1-.1.2-.2.2-.3v-.1c0 .1-.1.1-.2.1-.2 0-.3-.2-.3-.4s.1-.4.3-.4c.1 0 .1 0 .2.1v-.1h.1v.8c-.1.2-.1.3-.3.3m0-.4c.1 0 .1 0 .2-.1v-.3c0-.1-.1-.1-.2-.1s-.2.1-.2.3c-.1.1 0 .2.2.2m.4-1h.1v.4c.1-.1.1-.1.2-.1s.2.1.2.2v.5h-.1v-.5c0-.1-.1-.2-.2-.2s-.1 0-.2.1v.5h-.1v-.9zm.9.4v.4c0 .1 0 .1.1.1h.1v.1h-.1c-.1 0-.2-.1-.2-.2l.1-.4h-.3v-.1l.3.1-.1-.3h.1v.3l.2-.1v.1h-.2zm.5-.1c.1 0 .2.1.3.2l-.1.1c0-.1-.1-.2-.2-.3-.1.1-.1.1-.1.2 0 0 0 .1.1.1h.1c.1 0 .2.1.2.2s-.1.2-.2.2-.2-.1-.3-.2l.1-.1c0 .1.1.1.2.1s.1 0 .1-.1c0 0 0-.1-.1-.1h-.1c-.1 0-.2-.1-.2-.2 0 0 .1-.1.2-.1m.7.8v-1h.2c.2 0 .4.1.4.3 0 .1-.1.2-.2.3l.3.5h-.1l-.2-.4h-.2v.4c-.1-.1-.2-.1-.2-.1zm.1-1v.5h.1c.2 0 .3-.1.3-.2s-.1-.2-.3-.2c0-.1-.1-.1-.1-.1zm.8.6c0 .2.1.2.2.2s.2 0 .2-.1l.1.1c-.1.1-.2.2-.3.2-.2 0-.3-.1-.3-.4s.2-.4.3-.4c.2 0 .3.1.3.4h-.5zm0-.1h.4c0-.1-.1-.2-.2-.2s-.2.1-.2.2m.8-.3c.1 0 .2.1.3.2l-.1.1c-.1-.1-.1-.2-.2-.3-.1.1-.1.1-.1.2 0 0 0 .1.1.1h.1c.1 0 .2.1.2.2s-.1.2-.2.2-.2-.1-.3-.2l.1-.1c0 .1.1.1.2.1s.1 0 .1-.1c0 0 0-.1-.1-.1h-.1c-.1 0-.2-.1-.2-.2 0 0 .1-.1.2-.1m.5.4c0 .2.1.2.2.2s.2 0 .2-.1l.1.1c-.1.1-.2.2-.3.2-.2 0-.3-.1-.3-.4s.2-.4.3-.4c.2 0 .3.1.3.4h-.5zm0-.1h.4c0-.1-.1-.2-.2-.2s-.2.1-.2.2m.6-.2h.1c0-.1.1-.1.2-.1h.1v.1h-.1c-.1 0-.1 0-.1.1v.5h-.1l-.1-.6zm1 0l-.2.7h-.2l-.2-.7h.1l.2.5.2-.5zm.2.3c0 .2.1.2.2.2s.2 0 .2-.1l.1.1c-.1.1-.2.2-.3.2-.2 0-.3-.1-.3-.4s.2-.4.3-.4c.2 0 .3.1.3.4h-.5zm0-.1h.4c0-.1-.1-.2-.2-.2s-.2.1-.2.2m1.1.4c0 .1-.1.1-.2.1-.2 0-.3-.2-.3-.4s.1-.4.3-.4c.1 0 .1 0 .2.1v-.4h.1v1.1l-.1-.1zm-.2 0c.1 0 .1 0 .2-.1v-.3c0-.1-.1-.1-.2-.1s-.2.1-.2.3c0 .1.1.2.2.2"/><path class="st1" d="M63.4.1h1.2l.9 6.9.9-6.9H68l.8 6.9 1-6.9h1.1l-1.5 8.4H68l-.8-7-1 7h-1.4L63.4.1zm7.9 0h1.8c1.7 0 1.9.4 1.9 2.3 0 1.1-.2 1.6-1.1 1.9.8.1 1.1.5 1.1 1.3v1.8c0 .3 0 .7.1 1.1H74c-.1-.2-.1-.4-.1-.8V5.9c0-.8-.1-1-.9-1h-.4v3.6h-1.2L71.3.1zm1.2 3.8h.3c.9 0 1-.2 1-1.4s-.1-1.4-.8-1.4h-.6l.1 2.8zM75.7.1h1.2v8.4h-1.2V.1zm1.5 0h3.9v1h-1.4v7.4h-1.2V1.1h-1.4v-1z"/><path class="st1" d="M81.2.1h3.9v1h-1.4v7.4h-1.2V1.1h-1.4v-1zm4.3 0h3.2v1h-2v2.6h1.9v1h-1.9v2.8h2v1h-3.2V.1zm3.5 0h1.6l1.4 7v-7h1.1v8.4h-1.7L90 1.4v7.1h-1V.1zm8.4 0h1.3l1.7 8.4h-1.2l-.4-2.1H97l-.4 2.1h-1.2l2-8.4zm-.1 5.3h1.5l-.7-4-.8 4zm3.6-5.3h1.6l1.4 6.9V.1h1.1v8.4h-1.7l-1.4-7.1v7.1h-1V.1zm4.8 0h1.9c1.9 0 2 .6 2 3.1v2.5c0 2.1-.4 2.8-2.2 2.8h-1.7V.1zm1.2 7.4h.6c.9 0 1-.4 1-1.9V2.8c0-1.2-.1-1.7-1.1-1.7h-.5v6.4zm10.6-4.9c0-.8-.3-1.2-.9-1.2s-.9.4-.9 1.2V16c0 .8.3 1.2.9 1.2s.9-.4.9-1.2v-2.6h1.7V16c0 1.5-.9 2.5-2.6 2.5s-2.6-1-2.6-2.5V2.5c0-1.5.9-2.5 2.6-2.5s2.6 1 2.6 2.5v2.4h-1.7V2.6zm6.9-2.4h1.7v18.3h-1.7V9.6h-2.5v8.8h-1.7V.2h1.7v8.1h2.5V.2zm7.5 10.6c0-.9-.5-1.1-1.3-1.1h-1.1v8.8h-1.7V.2h3.1c1.6 0 2.6.3 2.6 2.1v4.6c0 1.4-.5 1.9-1.8 2 1.2.1 1.9.4 1.9 1.7v7.8h-1.7v-7.6zm-1.3-2.6c.8 0 1.2-.2 1.2-1.3V2.8c0-1.1-.6-1.2-1.4-1.2h-.9v6.6h1.1zm4.9-8h1.7v18.3h-1.7V.2zm6.7 2.5c0-.7-.2-1.2-1-1.2s-1 .5-1 1.2v1.9c0 .6.1 1.2.4 1.6l2.7 4.6c.4.6.6 1.4.6 2.2v2.9c0 1.7-1 2.7-2.7 2.7-1.9 0-2.7-.8-2.7-2.7v-2.5h1.7v2.4c0 .9.3 1.4 1.1 1.4.7 0 1-.5 1-1.4v-2.6c0-.6-.1-1.1-.5-1.7l-2.4-4.3c-.5-.8-.7-1.4-.7-2.3V2.7c0-1.8.9-2.7 2.6-2.7 1.9 0 2.6.9 2.6 2.5v2.3h-1.7V2.7zm4.2-1.1h-1.9V.2h5.4v1.4H148v16.8h-1.7l.1-16.8zm4.7 1.5c0-1.8.7-3.1 2.9-3.1s2.9 1.3 2.9 3.1v12.4c0 1.8-.7 3.1-2.9 3.1s-2.9-1.3-2.9-3.1V3.1zm1.7 12.3c0 1 .2 1.7 1.3 1.7s1.3-.7 1.3-1.7V3.1c0-1-.2-1.7-1.3-1.7s-1.3.7-1.3 1.7v12.3zm6-15.2h2.7c2.1 0 2.8.7 2.8 2.8v4.5c0 2.1-.6 2.8-2.8 2.8h-1v8.2h-1.7V.2zm2.4 8.6c.8 0 1.3-.2 1.3-1.1v-5c0-.9-.5-1.1-1.3-1.1h-.8v7.2h.8zm8-8.6h1.7v18.3h-1.7V9.6h-2.5v8.8H165V.2h1.7v8.1h2.5V.2zm3.5 0h4.4v1.4h-2.8v6.7h2.6v1.4h-2.6V17h2.8v1.4h-4.4V.2zm9.9 10.6c0-.9-.5-1.1-1.3-1.1h-1.1v8.8h-1.7V.2h3.1c1.6 0 2.6.3 2.6 2.1v4.6c0 1.4-.5 1.9-1.8 2 1.2.1 1.9.4 1.9 1.7v7.8h-1.7v-7.6zm-1.3-2.6c.8 0 1.2-.2 1.2-1.3V2.8c0-1.1-.6-1.2-1.4-1.2h-.9v6.6h1.1zm12-8h1.5v18.3h-2.4l-2.1-16.2h-.1v16.2h-1.5V.2h2.4l2.1 15.6h.1V.2zm3.2 2.9c0-1.8.7-3.1 2.9-3.1s2.9 1.3 2.9 3.1v12.4c0 1.8-.7 3.1-2.9 3.1s-2.9-1.3-2.9-3.1V3.1zm1.7 12.3c0 1 .2 1.7 1.3 1.7s1.3-.7 1.3-1.7V3.1c0-1-.2-1.7-1.3-1.7s-1.3.7-1.3 1.7v12.3zm6-15.2h1.7V17h2.8v1.4h-4.4L204.2.2zm10.2 13.2h-2.9l-.7 5.1h-1.7L211.8.2h2.3l2.7 18.3h-1.7l-.7-5.1zm-1.5-12l-1.3 10.5h2.6l-1.3-10.5zm9.2-1.2h1.5v18.3h-2.4l-2.1-16.2h-.1v16.2h-1.5V.2h2.4l2.1 15.6h.1V.2zM68.7 10h1.9c1.9 0 2 .6 2 3.1v2.5c0 2.1-.4 2.8-2.2 2.8h-1.7V10zm1.1 7.4h.6c.9 0 1-.5 1-1.9v-2.9c0-1.2-.1-1.7-1.1-1.7h-.5v6.5zm3.4-7.4h1.2v8.4h-1.2V10zm1.9 0h1.8c1.7 0 1.9.4 1.9 2.3 0 1.1-.2 1.6-1.1 1.9.8.1 1.1.5 1.1 1.3v1.8c0 .3 0 .7.1 1.1h-1.1c-.1-.2-.1-.4-.1-.8v-1.9c0-.8-.1-1-.9-1h-.4v3.6h-1.2l-.1-8.3zm1.1 3.8h.3c.9 0 1-.2 1-1.4s-.1-1.4-.8-1.4h-.6l.1 2.8zm3.3-3.8h3.2v1h-2v2.6h1.9v1h-1.9v2.8h2v1h-3.2V10zm3.4 2.2c0-1.2.4-2.2 2-2.2 1.2 0 1.7.6 1.7 1.5v.8h-1.1v-.6c0-.5-.2-.9-.7-.9-.6 0-.7.4-.7 1.4v4.1c0 1 .3 1.2.7 1.2.4 0 .7-.3.7-1V16h1.1v.9c0 .9-.4 1.5-1.7 1.5-1.5 0-1.9-.8-1.9-2.1v-4.1zm3.7-2.2h3.9v1h-1.4v7.4H88V11h-1.4v-1zm4.3 0h3.2v1h-2v2.6H94v1h-1.9v2.8h2v1h-3.2V10zm3.6 0h1.9c1.9 0 2 .6 2 3.1v2.5c0 2.1-.4 2.8-2.2 2.8h-1.7V10zm1.1 7.4h.6c.9 0 1-.5 1-1.9v-2.9c0-1.2-.1-1.7-1.1-1.7h-.5v6.5zm5.5-7.4h2c1.4 0 1.7.5 1.7 2 0 1.6-.3 1.9-1.1 2 .9.2 1.1.5 1.1 1.9 0 1.8-.2 2.4-1.9 2.4h-1.8V10zm1.2 3.6h.7c.7 0 .8-.1.8-1.5 0-.9-.2-1.2-.9-1.2h-.6v2.7zm0 3.9h.7c.7 0 .8-.2.8-1.5s-.1-1.4-.7-1.4h-.8v2.9zm2.9-7.5h1.2l1 3.5 1.2-3.5h1l-1.6 5v3.4h-1.2V15l-1.6-5z"/></svg>
